<svg id="svg" version="1.1" width="400" height="400" xmlns="http://www.w3.org/2000/svg" xmlns:xlink="http://www.w3.org/1999/xlink" style="display: block;"><g id="svgg"><path id="path0" d="M107.058 77.809 C 89.819 82.163,83.922 103.730,96.561 116.201 C 110.962 130.411,135.200 120.248,135.200 100.000 C 135.200 85.267,121.210 74.235,107.058 77.809 M90.769 140.769 L 89.600 141.938 89.600 225.000 L 89.600 308.062 90.769 309.231 L 91.938 310.400 112.143 310.400 C 134.027 310.400,134.110 310.392,135.019 308.215 C 135.804 306.338,135.860 144.289,135.077 142.010 C 134.241 139.576,134.583 139.612,112.269 139.606 L 91.938 139.600 90.769 140.769 M166.526 140.003 C 164.505 140.817,164.608 136.604,164.481 223.200 C 164.358 306.972,164.368 307.778,165.592 309.290 L 166.329 310.200 186.856 310.311 C 208.784 310.429,209.183 310.397,209.960 308.466 C 210.255 307.733,210.429 291.765,210.516 257.400 C 210.658 201.877,210.510 204.921,213.343 199.011 C 221.875 181.212,252.769 180.818,261.328 198.400 C 264.388 204.687,264.161 200.339,264.392 257.000 C 264.615 311.581,264.514 309.207,266.650 310.019 C 268.129 310.581,307.294 310.522,308.537 309.956 C 309.073 309.712,309.712 309.073,309.956 308.537 C 310.552 307.229,310.573 215.034,309.980 204.944 C 307.281 159.063,292.962 140.887,258.600 139.724 C 237.286 139.002,225.686 143.005,217.473 153.913 C 213.045 159.794,210.922 157.905,210.509 147.720 C 210.275 141.942,210.245 141.783,209.166 140.704 L 208.062 139.600 187.731 139.625 C 176.549 139.639,167.007 139.809,166.526 140.003 " stroke="none" fill="#ffffff" fill-rule="evenodd"></path><path id="path1" d="M2.336 2.336 C 1.051 3.621,0.000 4.881,0.000 5.137 C 0.000 5.393,0.650 4.883,1.444 4.004 C 2.238 3.125,3.505 1.864,4.258 1.203 C 5.011 0.541,5.413 0.000,5.150 0.000 C 4.887 0.000,3.621 1.051,2.336 2.336 M397.189 2.589 C 398.600 4.013,399.845 5.088,399.955 4.979 C 400.217 4.717,395.545 0.000,395.024 0.000 C 394.804 0.000,395.778 1.165,397.189 2.589 M0.000 394.956 C 0.000 395.503,4.691 400.243,4.962 399.971 C 5.063 399.870,3.988 398.595,2.573 397.138 C 1.158 395.680,0.000 394.699,0.000 394.956 M397.189 397.411 C 395.778 398.835,394.804 400.000,395.024 400.000 C 395.545 400.000,400.217 395.283,399.955 395.021 C 399.845 394.912,398.600 395.987,397.189 397.411 " stroke="none" fill="#0000ff" fill-rule="evenodd"></path><path id="path2" d="M2.955 2.955 L 0.000 5.910 0.000 200.026 L 0.000 394.142 2.929 397.071 L 5.858 400.000 200.000 400.000 L 394.142 400.000 397.071 397.071 L 400.000 394.142 400.000 200.000 L 400.000 5.858 397.071 2.929 L 394.142 0.000 200.026 0.000 L 5.910 0.000 2.955 2.955 M118.956 74.389 C 138.880 79.484,145.659 103.854,131.210 118.444 C 117.244 132.547,93.962 127.253,87.499 108.503 C 80.721 88.837,98.798 69.233,118.956 74.389 M135.873 136.777 C 139.320 138.342,139.000 129.300,139.000 225.000 C 139.000 320.643,139.311 311.483,136.000 313.262 C 133.730 314.481,90.224 314.215,88.529 312.972 C 85.772 310.949,85.987 318.775,86.099 224.529 L 86.200 139.659 87.028 138.529 C 88.926 135.943,88.348 136.000,112.400 136.009 C 132.951 136.017,134.296 136.061,135.873 136.777 M210.772 136.701 C 213.019 137.847,213.639 139.081,214.165 143.464 C 214.866 149.302,215.323 149.584,218.944 146.415 C 227.914 138.565,239.097 135.622,258.119 136.105 C 292.772 136.986,308.189 153.819,313.086 196.123 C 314.142 205.248,314.345 308.774,313.310 310.772 C 311.657 313.965,313.097 313.786,287.952 313.910 C 262.935 314.032,263.679 314.108,261.906 311.257 L 261.000 309.800 260.800 258.200 L 260.600 206.600 259.543 203.502 C 256.236 193.807,249.301 189.404,237.400 189.442 C 224.816 189.482,217.502 194.705,214.910 205.502 C 214.336 207.888,214.235 214.098,214.031 259.271 C 213.801 310.116,213.796 310.347,212.972 311.471 C 211.074 314.057,211.664 313.999,187.460 313.999 C 162.991 314.000,163.656 314.071,161.906 311.257 L 161.000 309.800 161.000 225.000 C 161.000 128.965,160.658 138.385,164.200 136.754 C 166.602 135.648,208.613 135.600,210.772 136.701 " stroke="none" fill="#007bb5" fill-rule="evenodd"></path><path id="path3" d="M106.255 74.234 C 88.572 78.515,80.435 99.509,90.557 114.736 C 103.115 133.625,132.468 128.495,138.248 106.400 C 143.148 87.668,125.220 69.644,106.255 74.234 M119.889 78.393 C 135.825 83.985,140.457 104.298,128.519 116.236 C 115.858 128.897,93.903 122.230,90.202 104.600 C 86.626 87.567,103.524 72.649,119.889 78.393 M89.228 136.701 C 88.474 137.085,87.484 137.908,87.028 138.529 L 86.200 139.659 86.099 224.529 C 85.987 318.775,85.772 310.949,88.529 312.972 C 90.224 314.215,133.730 314.481,136.000 313.262 C 139.311 311.483,139.000 320.643,139.000 225.000 C 139.000 129.300,139.320 138.342,135.873 136.777 C 133.392 135.651,91.423 135.582,89.228 136.701 M164.200 136.754 C 160.658 138.385,161.000 128.965,161.000 225.000 L 161.000 309.800 161.906 311.257 C 163.656 314.071,162.991 314.000,187.460 313.999 C 211.664 313.999,211.074 314.057,212.972 311.471 C 213.796 310.347,213.801 310.116,214.031 259.271 C 214.235 214.098,214.336 207.888,214.910 205.502 C 217.502 194.705,224.816 189.482,237.400 189.442 C 249.301 189.404,256.236 193.807,259.543 203.502 L 260.600 206.600 260.800 258.200 L 261.000 309.800 261.906 311.257 C 263.679 314.108,262.935 314.032,287.952 313.910 C 313.097 313.786,311.657 313.965,313.310 310.772 C 314.345 308.774,314.142 205.248,313.086 196.123 C 308.189 153.819,292.772 136.986,258.119 136.105 C 239.097 135.622,227.914 138.565,218.944 146.415 C 215.323 149.584,214.866 149.302,214.165 143.464 C 213.639 139.081,213.019 137.847,210.772 136.701 C 208.613 135.600,166.602 135.648,164.200 136.754 M133.600 140.116 C 135.627 141.139,135.553 137.987,135.577 225.113 C 135.602 314.182,135.732 309.113,133.393 310.003 C 132.751 310.247,124.559 310.400,112.143 310.400 L 91.938 310.400 90.769 309.231 L 89.600 308.062 89.600 225.000 L 89.600 141.938 90.769 140.769 L 91.938 139.600 112.269 139.606 C 127.826 139.610,132.835 139.730,133.600 140.116 M209.166 140.704 C 210.245 141.783,210.275 141.942,210.509 147.720 C 210.922 157.905,213.045 159.794,217.473 153.913 C 225.686 143.005,237.286 139.002,258.600 139.724 C 292.962 140.887,307.281 159.063,309.980 204.944 C 310.573 215.034,310.552 307.229,309.956 308.537 C 309.712 309.073,309.073 309.712,308.537 309.956 C 307.294 310.522,268.129 310.581,266.650 310.019 C 264.514 309.207,264.615 311.581,264.392 257.000 C 264.161 200.339,264.388 204.687,261.328 198.400 C 252.769 180.818,221.875 181.212,213.343 199.011 C 210.510 204.921,210.658 201.877,210.516 257.400 C 210.429 291.765,210.255 307.733,209.960 308.466 C 209.183 310.397,208.784 310.429,186.856 310.311 L 166.329 310.200 165.592 309.290 C 164.368 307.778,164.358 306.972,164.481 223.200 C 164.608 136.604,164.505 140.817,166.526 140.003 C 167.007 139.809,176.549 139.639,187.731 139.625 L 208.062 139.600 209.166 140.704 " stroke="none" fill="#8bc3dd" fill-rule="evenodd"></path><path id="path4" d="M3.132 2.297 C 1.808 3.560,0.539 4.955,0.313 5.397 C 0.087 5.839,0.562 5.443,1.368 4.517 C 2.174 3.591,3.578 2.196,4.489 1.417 C 5.399 0.638,6.008 0.000,5.842 0.000 C 5.676 0.000,4.457 1.034,3.132 2.297 M396.966 2.900 C 398.525 4.495,399.880 5.750,399.978 5.689 C 400.193 5.554,394.725 0.000,394.377 0.000 C 394.243 0.000,395.408 1.305,396.966 2.900 M396.966 397.100 C 395.408 398.695,394.243 400.000,394.377 400.000 C 394.725 400.000,400.193 394.446,399.978 394.311 C 399.880 394.250,398.525 395.505,396.966 397.100 M2.885 397.396 C 4.362 398.918,5.627 400.081,5.695 399.981 C 5.764 399.882,4.556 398.636,3.010 397.214 L 0.200 394.628 2.885 397.396 " stroke="none" fill="#00ffff" fill-rule="evenodd"></path></g></svg>